<svg xmlns="http://www.w3.org/2000/svg" width="570" height="613" viewBox="0 0 570 613" version="1.1">
	<path d="M 362.585 1.119 C 358.063 2.180, 346.511 7.680, 345.012 9.485 C 344.295 10.350, 344.881 12.445, 347.003 16.605 C 353.788 29.907, 355.585 47.749, 352.853 74.699 L 351.705 86.016 347.603 82.467 C 325.860 63.658, 298.918 48.459, 271.260 39.398 C 265.554 37.529, 260.711 36, 260.499 36 C 260.287 36, 261.464 37.463, 263.116 39.250 C 269.999 46.699, 276.250 64.780, 277.635 81.250 L 278.288 89 271.275 89 C 257.518 89, 235.662 84.124, 206.039 74.446 C 195.335 70.950, 186.363 68.304, 186.100 68.566 C 184.394 70.272, 201.088 94.233, 208.900 101.291 C 218.564 110.022, 233.138 114.955, 251.929 115.856 L 265.359 116.500 261.607 119.356 C 256.046 123.590, 246.637 135.933, 242.333 144.640 C 238.090 153.226, 236.798 162.827, 238.991 169.473 L 240.197 173.128 246.349 167.261 C 265.049 149.427, 283.763 141.448, 309.595 140.297 L 322.689 139.713 323.310 149.107 C 324.796 171.589, 334.218 189.977, 352.230 205.547 C 358.649 211.095, 369.099 217.307, 370.174 216.214 C 370.560 215.822, 372.077 211.450, 373.544 206.500 C 376.824 195.436, 377.003 182.276, 374.142 162.500 C 373.108 155.350, 372.374 149.366, 372.511 149.203 C 372.648 149.040, 375.683 152.640, 379.254 157.203 C 388.296 168.755, 403.176 182.827, 411.712 187.898 C 415.663 190.246, 424.207 194.422, 430.698 197.180 C 442.779 202.313, 474.725 213.258, 476.195 212.768 C 477.852 212.216, 467.405 198.270, 459.887 191 C 455.622 186.875, 448.614 180.107, 444.316 175.961 C 437.455 169.342, 427.098 156.026, 425.429 151.675 C 424.963 150.460, 426.381 150.653, 432.675 152.661 C 436.979 154.033, 445.533 155.893, 451.684 156.792 C 461.113 158.171, 463.821 158.231, 468.950 157.171 C 477.247 155.458, 483.166 152.774, 490.933 147.207 L 497.500 142.500 486.500 141.877 C 469.142 140.894, 458.812 138.672, 442 132.304 C 433.933 129.249, 411.555 118.760, 410.006 117.309 C 409.735 117.054, 411.085 115.526, 413.006 113.912 C 422.800 105.686, 436.333 99.682, 454.500 95.504 L 464.500 93.204 458.544 90.524 C 450.705 86.996, 436.611 83.332, 425.827 82.019 C 411.485 80.273, 395.422 82.965, 375.545 90.447 C 369.623 92.676, 368.876 92.774, 369.490 91.245 C 369.874 90.285, 371.716 84.879, 373.582 79.232 C 381.482 55.320, 385 35.605, 385 15.240 L 385 2.237 380.557 1.119 C 375.382 -0.184, 368.142 -0.184, 362.585 1.119 M 160 105.370 C 140.157 113.024, 125.698 120.441, 108.734 131.667 C 94.797 140.890, 85.195 148.726, 71.639 161.939 C 50.338 182.701, 35.259 203.424, 22.477 229.500 C 3.551 268.112, -3.009 304.722, 1.065 349 C 2.422 363.746, 9.830 397.378, 15.085 412.647 C 28.589 451.887, 50.529 486.578, 81.454 517.590 C 99.793 535.980, 108.586 543.240, 129 556.843 C 171.782 585.351, 221.247 602.699, 282.500 610.677 C 293.971 612.171, 303.364 612.494, 334.500 612.466 C 368.296 612.435, 373.995 612.196, 386.013 610.298 C 441.971 601.463, 480.141 583.986, 511.040 553.051 C 542.956 521.099, 561.905 477.186, 568.452 420 C 570.497 402.136, 570.539 353.776, 568.525 334.800 C 562.231 275.499, 539.168 225.829, 499.891 186.990 L 489.908 177.117 479.204 177.696 C 473.317 178.015, 468.400 178.350, 468.278 178.443 C 468.157 178.535, 470.432 181.122, 473.336 184.192 C 481.963 193.315, 487.057 205.655, 488.581 221.123 L 489.290 228.318 480.772 227.716 C 455.483 225.932, 422.289 213.964, 398.500 198.053 C 393.550 194.743, 389.163 192.026, 388.750 192.017 C 388.337 192.008, 387.993 193.912, 387.985 196.250 C 387.947 207.107, 380.839 225.120, 373.087 234 L 369.159 238.500 362.830 235.250 C 349.158 228.231, 333.847 214.100, 323.157 198.635 C 317.740 190.797, 308.233 173.190, 306.210 167.250 C 305.164 164.177, 304.838 164, 300.212 164 C 284.144 164, 260.170 175.571, 239.865 193.126 L 234.231 197.998 230.731 194.124 C 225.608 188.454, 222.292 182.300, 220.412 174.975 C 218.078 165.886, 218.928 149.491, 222.328 138.004 C 223.711 133.332, 224.765 129.456, 224.671 129.391 C 224.577 129.327, 220.225 128.068, 215 126.594 C 203.191 123.263, 185.827 114.708, 176.204 107.480 C 172.191 104.466, 168.816 102.021, 168.704 102.046 C 168.592 102.071, 164.675 103.567, 160 105.370" stroke="none" fill="black" fill-rule="evenodd"/>
</svg>